<?xml version="1.0" encoding="utf-8"?>
<!-- Generator: Adobe Illustrator 26.0.1, SVG Export Plug-In . SVG Version: 6.00 Build 0)  -->
<svg version="1.1" id="Layer_1" xmlns="http://www.w3.org/2000/svg" xmlns:xlink="http://www.w3.org/1999/xlink" x="0px" y="0px"
	 viewBox="0 0 4251.97 4251.97" style="enable-background:new 0 0 4251.97 4251.97;" xml:space="preserve">
<g>
	<path d="M1246.35,1519.94l175.81,455.89h-65.17l-40.37-104.92h-205.69l-40.38,104.92h-65.17l175.81-455.89H1246.35z
		 M1135.71,1805.75h155.78l-77.57-200.92L1135.71,1805.75z"/>
	<path d="M1540.1,1511.63v468.93h-62.31v-468.93H1540.1z"/>
	<path d="M1868.18,1980.56l-161.5-144.65v144.65h-62.31v-468.93h62.31v263.87l148.47-133.52h88.06l-181.85,163.41l194.88,175.17
		H1868.18z"/>
	<path d="M2301.18,1980.56h-62.63v-275.95h-174.54v275.95h-62.31v-468.93h62.31v190.11c0.42-8.27,2.33-16.05,5.72-23.37
		c3.39-7.31,7.89-13.67,13.51-19.07c5.61-5.41,12.13-9.64,19.55-12.72c7.42-3.07,15.36-4.61,23.84-4.61h111.91
		c8.69,0,16.85,1.64,24.48,4.93c7.63,3.29,14.25,7.74,19.87,13.35c5.61,5.62,10.06,12.24,13.35,19.87
		c3.28,7.63,4.93,15.79,4.93,24.48V1980.56z"/>
	<path d="M2405.46,1832.73c0-8.69,1.64-16.79,4.93-24.32c3.28-7.52,7.74-14.15,13.35-19.87c5.61-5.72,12.24-10.22,19.87-13.51
		c7.63-3.28,15.68-4.93,24.16-4.93h161.5v-65.49h-204.42v-62.63h204.42c8.69,0,16.85,1.64,24.48,4.93
		c7.62,3.29,14.25,7.74,19.86,13.35c5.62,5.62,10.06,12.24,13.36,19.87c3.28,7.63,4.93,15.79,4.93,24.48v275.95h-62.63v-57.23
		c-0.64,7.84-2.76,15.26-6.36,22.25c-3.61,7-8.22,13.09-13.83,18.28c-5.62,5.2-12.03,9.27-19.23,12.24
		c-7.21,2.97-14.84,4.45-22.89,4.45h-99.19c-8.48,0-16.53-1.64-24.16-4.93c-7.63-3.28-14.26-7.74-19.87-13.36
		c-5.62-5.61-10.07-12.24-13.35-19.87c-3.29-7.63-4.93-15.79-4.93-24.48V1832.73z M2467.77,1917.93h161.5v-85.2h-161.5V1917.93z"/>
	<path d="M2858.48,1511.63v468.93h-62.31v-468.93H2858.48z"/>
	<path d="M3249.2,1843.22h-224.13v74.71h224.13v62.63h-224.13c-8.48,0-16.53-1.64-24.16-4.93c-7.63-3.28-14.25-7.74-19.87-13.36
		c-5.62-5.61-10.06-12.24-13.35-19.87c-3.29-7.63-4.93-15.79-4.93-24.48v-213.32c0-8.69,1.64-16.85,4.93-24.48
		c3.28-7.63,7.73-14.25,13.35-19.87c5.62-5.61,12.24-10.06,19.87-13.35c7.63-3.28,15.68-4.93,24.16-4.93h161.5
		c8.68,0,16.84,1.64,24.47,4.93c7.64,3.29,14.26,7.74,19.87,13.35c5.62,5.62,10.07,12.24,13.36,19.87
		c3.28,7.63,4.93,15.79,4.93,24.48V1843.22z M3025.07,1704.61v75.98h161.5v-75.98H3025.07z"/>
	<path d="M3639.92,1843.22h-224.13v74.71h224.13v62.63h-224.13c-8.48,0-16.53-1.64-24.16-4.93c-7.63-3.28-14.25-7.74-19.86-13.36
		c-5.62-5.61-10.07-12.24-13.36-19.87c-3.29-7.63-4.93-15.79-4.93-24.48v-213.32c0-8.69,1.64-16.85,4.93-24.48
		c3.28-7.63,7.73-14.25,13.36-19.87c5.61-5.61,12.23-10.06,19.86-13.35c7.63-3.28,15.69-4.93,24.16-4.93h161.5
		c8.69,0,16.84,1.64,24.47,4.93c7.63,3.29,14.25,7.74,19.87,13.35c5.62,5.62,10.06,12.24,13.36,19.87
		c3.28,7.63,4.93,15.79,4.93,24.48V1843.22z M3415.78,1704.61v75.98h161.5v-75.98H3415.78z"/>
	<path d="M3747.37,2054.63v-412.65H3810v412.65c0,8.69-1.64,16.85-4.93,24.48s-7.74,14.25-13.35,19.87
		c-5.62,5.61-12.24,10.06-19.87,13.35c-7.63,3.28-15.79,4.93-24.48,4.93h-48.95v-62.63H3747.37z M3744.19,1511.63h68.99v65.17
		h-68.99V1511.63z"/>
	<path d="M636.86,1337.52c6.59,0,12.87,0.64,18.83,1.9c5.95,1.27,11.22,3.24,15.78,5.89c4.56,2.67,8.17,6.16,10.84,10.46
		c2.65,4.32,3.99,9.38,3.99,15.21c0,8.62-0.89,18.13-2.66,28.52c-1.78,10.4-4.06,21.1-6.85,32.14c-2.79,11.02-5.96,21.93-9.51,32.71
		c-3.55,10.77-7.03,20.66-10.46,29.67c-3.42,9-6.71,16.86-9.89,23.58c-3.17,6.71-5.77,11.35-7.79,13.88
		c-8.12,12.68-19.08,25.36-32.89,38.03c-13.82,12.68-29.16,25.74-46.03,39.17c-16.86,13.44-34.8,27.38-53.81,41.84
		c-19.02,14.45-37.71,29.47-56.09,45.07c-18.39,15.59-36.08,32.01-53.06,49.25c-16.99,17.25-31.89,35.5-44.69,54.77
		c-12.8,19.26-23.01,39.68-30.61,61.23c-7.61,21.56-11.41,44.37-11.41,68.46c0,25.61,4.88,49.38,14.64,71.32
		c9.76,21.94,23.33,40.95,40.7,57.05c17.36,16.1,37.96,28.78,61.8,38.03c23.83,9.25,49.95,13.88,78.35,13.88
		c26.87,0,53.49-3.62,79.87-10.84c26.37-7.23,51.54-17.06,75.49-29.48c23.97-12.42,46.08-27,66.37-43.73
		c20.28-16.73,37.9-34.68,52.87-53.82c14.96-19.14,26.69-38.92,35.18-59.33c8.5-20.41,12.74-40.63,12.74-60.67
		c0-20.54-3.8-38.28-11.41-53.25c-7.61-14.95-17.81-27.63-30.61-38.03c-12.81-10.39-27.58-19.02-44.31-25.85
		c-16.73-6.85-34.11-12.55-52.11-17.11c-18.01-4.56-36.01-8.37-54.01-11.41c-18.01-3.04-34.8-5.95-50.39-8.75
		c-15.6-2.79-29.36-5.95-41.27-9.51c-11.92-3.55-20.67-7.99-26.24-13.31l3.04-4.56c10.39,3.3,22.94,5.7,37.65,7.23
		c14.7,1.52,30.67,2.79,47.92,3.8c16.98,1.27,34.67,2.72,53.05,4.37c18.39,1.65,36.39,4.19,54.01,7.61
		c17.63,3.43,34.42,8.18,50.4,14.27c15.97,6.09,30.05,14.2,42.22,24.34c9.63,9.12,17.56,18.82,23.77,29.08
		c6.22,10.28,11.04,20.93,14.45,31.95c3.43,11.04,5.77,22.45,7.04,34.23c1.27,11.8,1.9,23.91,1.9,36.33
		c0,22.57-3.74,47.1-11.22,73.6c-7.47,26.5-18.44,53.12-32.89,79.87c-14.45,26.75-32.2,52.61-53.25,77.59
		c-21.05,24.98-45.2,47.1-72.45,66.36c-27.26,19.26-57.38,34.74-90.33,46.4c-32.96,11.66-68.46,17.5-106.49,17.5
		c-28.66,0-55.78-5.45-81.39-16.35c-25.61-10.91-48.11-27.14-67.51-48.68c-19.39-21.56-34.8-48.37-46.21-80.44
		c-11.41-32.07-17.11-69.28-17.11-111.63c0-46.65,6.21-92.41,18.64-137.29c12.42-44.88,32.33-88.11,59.71-129.69
		c14.96-22.82,32.52-44.37,52.67-64.66c20.17-20.28,40.89-39.24,62.19-56.86c21.3-17.62,42.28-33.72,62.95-48.29
		c20.66-14.58,39.1-27.58,55.33-38.99c16.22-11.41,29.35-21.1,39.36-29.1c10.02-7.98,15.03-14.13,15.03-18.44
		c0-4.31-3.42-7.42-10.27-9.31c-6.85-1.91-15.85-2.86-27-2.86c-11.92,0-25.42,1.34-40.5,3.99c-15.09,2.67-30.75,5.96-46.97,9.89
		c-16.23,3.94-32.39,8.18-48.5,12.74c-16.1,4.56-30.87,8.75-44.3,12.55c-13.69,4.06-25.54,7.41-35.56,10.08
		c-10.01,2.65-16.92,3.99-20.72,3.99c-3.8,0-6.4-0.82-7.79-2.47c-1.4-1.65-2.1-4.38-2.1-8.18c0-2.03,1.65-7.92,4.94-17.68
		c3.29-9.76,7.47-21.43,12.55-34.99c5.07-13.57,10.71-27.96,16.92-43.17c6.22-15.21,12.23-29.41,18.07-42.6
		c8.87-18.76,17.62-32.96,26.24-42.6c8.62-9.63,18.12-16.98,28.52-22.06l4.56,4.56c0,10.4-2.34,20.6-7.03,30.61
		c-4.7,10.02-9.83,19.34-15.41,27.96c-5.58,8.62-10.65,16.11-15.21,22.44c-4.82,6.6-7.23,11.54-7.23,14.83
		c0,4.06,3.04,6.09,9.13,6.09c2.79,0,7.61-1.01,14.45-3.04c6.85-2.03,15.15-4.5,24.92-7.42c9.76-2.91,20.91-6.14,33.47-9.69
		c12.54-3.55,25.86-6.78,39.93-9.69c14.08-2.92,28.84-5.39,44.31-7.42C605.54,1338.53,621.14,1337.52,636.86,1337.52z"/>
	<g>
		<path d="M989.01,2026.34h117.28v20.96h-48.16v125.67h-20.96V2047.3h-48.16V2026.34z"/>
		<path d="M1315.09,2152.82c0,2.8-0.53,5.42-1.58,7.87c-1.06,2.45-2.49,4.59-4.29,6.39c-1.81,1.81-3.92,3.24-6.34,4.29
			c-2.42,1.06-5.03,1.58-7.82,1.58h-54.09c-2.73,0-5.32-0.53-7.77-1.58c-2.45-1.06-4.59-2.49-6.39-4.29
			c-1.81-1.8-3.24-3.94-4.29-6.39c-1.06-2.45-1.58-5.08-1.58-7.87v-68.61c0-2.79,0.53-5.42,1.58-7.87c1.06-2.45,2.49-4.58,4.29-6.39
			c1.81-1.81,3.94-3.24,6.39-4.29c2.45-1.06,5.04-1.58,7.77-1.58h54.09c2.79,0,5.4,0.53,7.82,1.58c2.42,1.06,4.53,2.49,6.34,4.29
			c1.81,1.81,3.24,3.94,4.29,6.39c1.06,2.45,1.58,5.08,1.58,7.87V2152.82z M1240.95,2084.21v68.61h54.09v-68.61H1240.95z"/>
		<path d="M1534.31,2152.82c0,2.8-0.53,5.42-1.58,7.87c-1.06,2.45-2.49,4.59-4.29,6.39c-1.81,1.81-3.92,3.24-6.34,4.29
			c-2.42,1.06-5.03,1.58-7.82,1.58h-54.09c-2.73,0-5.32-0.53-7.77-1.58c-2.45-1.06-4.58-2.49-6.39-4.29
			c-1.81-1.8-3.24-3.94-4.29-6.39c-1.06-2.45-1.58-5.08-1.58-7.87v-68.61c0-2.79,0.53-5.42,1.58-7.87c1.06-2.45,2.49-4.58,4.29-6.39
			c1.81-1.81,3.94-3.24,6.39-4.29c2.45-1.06,5.04-1.58,7.77-1.58h54.09c2.79,0,5.4,0.53,7.82,1.58c2.42,1.06,4.53,2.49,6.34,4.29
			c1.8,1.81,3.24,3.94,4.29,6.39c1.06,2.45,1.58,5.08,1.58,7.87V2152.82z M1460.18,2084.21v68.61h54.09v-68.61H1460.18z"/>
		<path d="M1679.4,2022.15v150.82h-20.04v-150.82H1679.4z"/>
		<path d="M1870.19,2152.82v-25.26h-47.75c-2.8,0-5.42-0.53-7.87-1.58c-2.45-1.06-4.58-2.49-6.39-4.29
			c-1.81-1.81-3.24-3.94-4.29-6.39c-1.06-2.45-1.58-5.08-1.58-7.87v-23.21c0-2.79,0.53-5.42,1.58-7.87
			c1.06-2.45,2.49-4.58,4.29-6.39c1.81-1.81,3.94-3.24,6.39-4.29c2.45-1.06,5.08-1.58,7.87-1.58h63.7v20.14h-63.7v23.21h47.75
			c2.79,0,5.4,0.53,7.82,1.58c2.42,1.06,4.55,2.49,6.39,4.29c1.84,1.81,3.29,3.94,4.35,6.39c1.06,2.45,1.58,5.08,1.58,7.87v25.26
			c0,2.8-0.53,5.42-1.58,7.87c-1.06,2.45-2.5,4.59-4.35,6.39c-1.84,1.81-3.97,3.24-6.39,4.29c-2.42,1.06-5.03,1.58-7.82,1.58h-67.89
			v-20.14H1870.19z"/>
		<path d="M2233.28,2152.82v-25.26h-47.75c-2.79,0-5.42-0.53-7.87-1.58c-2.45-1.06-4.58-2.49-6.39-4.29
			c-1.81-1.81-3.24-3.94-4.29-6.39c-1.06-2.45-1.59-5.08-1.59-7.87v-23.21c0-2.79,0.53-5.42,1.59-7.87
			c1.05-2.45,2.49-4.58,4.29-6.39c1.81-1.81,3.94-3.24,6.39-4.29c2.46-1.06,5.08-1.58,7.87-1.58h63.7v20.14h-63.7v23.21h47.75
			c2.79,0,5.4,0.53,7.82,1.58c2.42,1.06,4.55,2.49,6.39,4.29c1.84,1.81,3.29,3.94,4.35,6.39c1.06,2.45,1.58,5.08,1.58,7.87v25.26
			c0,2.8-0.53,5.42-1.58,7.87c-1.06,2.45-2.51,4.59-4.35,6.39c-1.84,1.81-3.97,3.24-6.39,4.29c-2.42,1.06-5.03,1.58-7.82,1.58
			h-67.89v-20.14H2233.28z"/>
		<path d="M2376.33,2064.07h20.04v88.75h56.13v-88.75h20.14v108.9h-20.14v-18.41c-0.21,2.52-0.89,4.91-2.04,7.16
			c-1.16,2.25-2.64,4.21-4.45,5.88c-1.81,1.67-3.87,2.98-6.19,3.94c-2.32,0.96-4.77,1.43-7.36,1.43h-36.09
			c-2.73,0-5.32-0.53-7.77-1.58c-2.46-1.06-4.59-2.49-6.39-4.29c-1.81-1.8-3.24-3.94-4.29-6.39c-1.06-2.45-1.58-5.08-1.58-7.87
			V2064.07z"/>
		<path d="M2694.02,2152.82c0,2.8-0.53,5.42-1.58,7.87c-1.06,2.45-2.49,4.59-4.29,6.39c-1.81,1.81-3.94,3.24-6.39,4.29
			c-2.45,1.06-5.08,1.58-7.87,1.58h-56.13v43.97h-20.04v-152.86h20.04v18.4c0.2-2.59,0.88-4.99,2.04-7.21
			c1.16-2.21,2.62-4.16,4.4-5.83c1.77-1.67,3.83-2.98,6.19-3.94c2.35-0.95,4.86-1.43,7.52-1.43h35.99c2.79,0,5.42,0.53,7.87,1.58
			c2.45,1.06,4.58,2.49,6.39,4.29c1.8,1.81,3.24,3.94,4.29,6.39c1.06,2.45,1.58,5.08,1.58,7.87V2152.82z M2673.87,2152.82v-68.61
			h-56.13v68.61H2673.87z"/>
		<path d="M2915.39,2152.82c0,2.8-0.53,5.42-1.59,7.87c-1.06,2.45-2.49,4.59-4.29,6.39c-1.81,1.81-3.94,3.24-6.39,4.29
			c-2.46,1.06-5.08,1.58-7.88,1.58h-56.13v43.97h-20.04v-152.86h20.04v18.4c0.21-2.59,0.88-4.99,2.04-7.21
			c1.16-2.21,2.62-4.16,4.4-5.83c1.77-1.67,3.83-2.98,6.19-3.94c2.35-0.95,4.86-1.43,7.51-1.43h35.99c2.79,0,5.42,0.53,7.88,1.58
			c2.45,1.06,4.58,2.49,6.39,4.29c1.8,1.81,3.24,3.94,4.29,6.39s1.59,5.08,1.59,7.87V2152.82z M2895.24,2152.82v-68.61h-56.13v68.61
			H2895.24z"/>
		<path d="M3060.48,2022.15v150.82h-20.04v-150.82H3060.48z"/>
		<path d="M3185.53,2022.15h22.19v20.96h-22.19V2022.15z M3206.69,2064.07v108.9h-20.14v-108.9H3206.69z"/>
		<path d="M3424.89,2128.79h-72.09v24.03h72.09v20.14h-72.09c-2.73,0-5.32-0.53-7.77-1.58c-2.46-1.06-4.59-2.49-6.39-4.29
			c-1.81-1.8-3.24-3.94-4.29-6.39c-1.06-2.45-1.58-5.08-1.58-7.87v-68.61c0-2.79,0.53-5.42,1.58-7.87c1.06-2.45,2.49-4.58,4.29-6.39
			c1.8-1.81,3.94-3.24,6.39-4.29c2.45-1.06,5.04-1.58,7.77-1.58h51.94c2.79,0,5.42,0.53,7.88,1.58c2.45,1.06,4.58,2.49,6.39,4.29
			c1.8,1.81,3.24,3.94,4.29,6.39s1.59,5.08,1.59,7.87V2128.79z M3352.81,2084.21v24.44h51.94v-24.44H3352.81z"/>
		<path d="M3569.98,2084.21v88.75h-20.04v-108.9h20.04v19.22c0.14-2.66,0.75-5.16,1.84-7.52s2.54-4.4,4.35-6.14s3.9-3.1,6.29-4.09
			c2.38-0.99,4.94-1.48,7.67-1.48h21.37c2.79,0,5.4,0.53,7.82,1.58c2.42,1.06,4.55,2.49,6.39,4.29c1.84,1.81,3.29,3.94,4.35,6.39
			c1.06,2.45,1.58,5.08,1.58,7.87v18.41h-20.14v-18.41H3569.98z"/>
	</g>
</g>
</svg>
