<?xml version="1.0" encoding="utf-8"?>
<!-- Generator: Adobe Illustrator 26.0.1, SVG Export Plug-In . SVG Version: 6.00 Build 0)  -->
<svg version="1.1" id="Layer_1" xmlns="http://www.w3.org/2000/svg" xmlns:xlink="http://www.w3.org/1999/xlink" x="0px" y="0px"
	 viewBox="0 0 4251.97 4251.97" style="enable-background:new 0 0 4251.97 4251.97;" xml:space="preserve">
<g>
	<path d="M3830.84,1346.78c8.05,0,15.72,0.78,23,2.32c7.27,1.55,13.7,3.95,19.27,7.2c5.57,3.26,9.98,7.52,13.24,12.78
		c3.24,5.27,4.87,11.46,4.87,18.58c0,10.53-1.09,22.15-3.25,34.84c-2.17,12.7-4.96,25.78-8.36,39.26
		c-3.41,13.46-7.28,26.78-11.61,39.95c-4.34,13.16-8.59,25.24-12.78,36.24c-4.17,10.99-8.2,20.59-12.08,28.8
		c-3.87,8.2-7.04,13.86-9.52,16.95c-9.92,15.49-23.3,30.97-40.18,46.46c-16.89,15.49-35.62,31.44-56.22,47.85
		c-20.59,16.42-42.5,33.45-65.73,51.1c-23.23,17.65-46.07,36-68.52,55.06c-22.46,19.04-44.07,39.1-64.81,60.16
		c-20.75,21.07-38.95,43.37-54.59,66.9c-15.63,23.53-28.1,48.47-37.39,74.78c-9.29,26.34-13.94,54.19-13.94,83.62
		c0,31.29,5.96,60.32,17.88,87.11c11.93,26.79,28.5,50.02,49.72,69.68c21.21,19.66,46.37,35.15,75.49,46.46
		c29.11,11.3,61.01,16.95,95.7,16.95c32.82,0,65.34-4.42,97.56-13.24c32.21-8.84,62.95-20.84,92.21-36.01
		c29.28-15.17,56.29-32.97,81.07-53.42c24.77-20.44,46.29-42.36,64.57-65.74c18.27-23.38,32.59-47.54,42.97-72.47
		c10.38-24.93,15.57-49.62,15.57-74.1c0-25.09-4.65-46.76-13.94-65.04c-9.29-18.26-21.76-33.75-37.39-46.46
		c-15.64-12.69-33.69-23.23-54.13-31.58c-20.44-8.36-41.66-15.33-63.64-20.91c-22-5.57-43.98-10.22-65.97-13.94
		c-22-3.72-42.51-7.27-61.55-10.68c-19.06-3.4-35.86-7.27-50.41-11.61c-14.56-4.33-25.25-9.76-32.05-16.26l3.72-5.57
		c12.69,4.03,28.03,6.97,45.99,8.83c17.96,1.86,37.47,3.41,58.53,4.65c20.74,1.55,42.35,3.33,64.8,5.34
		c22.46,2.02,44.45,5.12,65.97,9.29c21.53,4.19,42.05,9.99,61.56,17.43s36.7,17.35,51.57,29.73c11.77,11.14,21.45,22.99,29.03,35.52
		c7.59,12.55,13.48,25.56,17.65,39.02c4.19,13.48,7.04,27.42,8.6,41.81c1.55,14.41,2.32,29.2,2.32,44.37
		c0,27.57-4.57,57.53-13.71,89.9c-9.13,32.37-22.53,64.89-40.18,97.56c-17.65,32.67-39.34,64.26-65.04,94.77
		c-25.71,30.51-55.21,57.53-88.49,81.06c-33.3,23.53-70.08,42.44-110.34,56.68c-40.27,14.24-83.62,21.37-130.08,21.37
		c-35,0-68.14-6.66-99.42-19.97c-31.29-13.33-58.76-33.14-82.46-59.46c-23.68-26.34-42.5-59.08-56.44-98.26
		c-13.94-39.17-20.91-84.63-20.91-136.35c0-56.98,7.58-112.88,22.76-167.7c15.17-54.82,39.49-107.63,72.94-158.41
		c18.27-27.87,39.72-54.19,64.34-78.98c24.63-24.77,49.94-47.93,75.96-69.46c26.02-21.52,51.64-41.18,76.89-58.99
		c25.24-17.81,47.76-33.69,67.59-47.62c19.81-13.94,35.85-25.78,48.08-35.54c12.24-9.75,18.35-17.26,18.35-22.53
		c0-5.26-4.18-9.06-12.54-11.38c-8.36-2.33-19.36-3.49-32.98-3.49c-14.56,0-31.05,1.63-49.47,4.87
		c-18.43,3.26-37.56,7.28-57.38,12.08c-19.82,4.81-39.56,9.99-59.24,15.57c-19.66,5.57-37.71,10.68-54.12,15.33
		c-16.72,4.96-31.2,9.05-43.44,12.32c-12.23,3.24-20.67,4.87-25.31,4.87c-4.65,0-7.82-1.01-9.52-3.01
		c-1.71-2.02-2.56-5.35-2.56-9.99c0-2.47,2.01-9.68,6.04-21.6c4.02-11.93,9.13-26.18,15.33-42.74
		c6.19-16.57,13.08-34.15,20.67-52.73c7.59-18.58,14.94-35.92,22.07-52.03c10.84-22.92,21.52-40.26,32.05-52.03
		c10.52-11.77,22.14-20.74,34.84-26.94l5.57,5.57c0,12.7-2.86,25.16-8.59,37.39c-5.74,12.24-12.01,23.63-18.82,34.15
		c-6.82,10.53-13.01,19.67-18.58,27.41c-5.89,8.06-8.83,14.1-8.83,18.12c0,4.96,3.72,7.43,11.15,7.43c3.4,0,9.29-1.23,17.65-3.72
		c8.36-2.47,18.51-5.5,30.43-9.06c11.92-3.56,25.54-7.5,40.88-11.84c15.32-4.33,31.59-8.29,48.77-11.84
		c17.2-3.56,35.23-6.58,54.13-9.06C3792.59,1348.02,3811.63,1346.78,3830.84,1346.78z"/>
	<g>
		<path d="M294.16,1960.01c-56.58,0-93.59-14.26-111.03-42.79c-7.77-12.84-11.65-27.26-11.65-43.27c0-7.92,0.95-16.24,2.85-24.96
			c6.02-27.58,18.38-44.22,37.09-49.93c-3.96,12.68-5.94,25.68-5.94,38.99c0,19.34,5.31,35.9,15.93,49.69
			c16.17,20.77,40.42,31.14,72.75,31.14h134.56c21.55,0,32.33-10.14,32.33-30.43v-106.27c0-10.46,10.14-18.15,30.43-23.06
			c10.62-2.53,20.36-3.96,29.24-4.28v139.55c0,23.46-9.03,40.74-27.1,51.83c-14.9,9.19-34.71,13.79-59.44,13.79H294.16z
			 M329.59,1762.92c0,2.85-1.59,5.47-4.75,7.85c-3.49,2.7-7.85,4.04-13.08,4.04H273v-34.47c0-2.38,1.58-4.91,4.75-7.61
			c3.8-3.17,8.08-4.75,12.84-4.75h38.99V1762.92z M408.76,1762.92c0,2.85-1.59,5.47-4.75,7.85c-3.65,2.7-8.08,4.04-13.31,4.04
			h-38.75v-34.47c0-2.38,1.58-4.91,4.75-7.61c3.8-3.17,8.08-4.75,12.84-4.75h39.23V1762.92z"/>
		<path d="M622.49,1936.48c0,11.1-10.38,18.94-31.14,23.54c-10.78,2.54-20.84,3.8-30.19,3.8v-255.1c0-11.09,10.38-18.94,31.14-23.54
			c10.94-2.38,21-3.57,30.19-3.57V1936.48z"/>
		<path d="M696.43,1960.01c-13.95,0-23.38-4.99-28.29-14.98c-3.49-7.13-5.23-17.59-5.23-31.38c6.18,3.49,21.95,5.23,47.31,5.23
			h70.61v-83.45c0-16.96-4.68-28.61-14.03-34.95c-6.5-4.28-16.56-6.42-30.19-6.42c-12.84,0-23.7,3.8-32.57,11.41
			c-10.62,9.03-15.93,19.34-15.93,30.91c-8.88-12.99-13.31-26.07-13.31-39.23c0-16.17,9.35-28.13,28.05-35.9
			c13.47-5.55,29.32-8.32,47.55-8.32c29.16,0,51.59,6.26,67.28,18.78c15.37,12.21,23.06,29.24,23.06,51.12v96.05h37.56v41.13H696.43
			z"/>
		<path d="M924.18,1918.88c21.55,0,32.33-10.14,32.33-30.43v-106.27c0-10.46,10.14-18.15,30.43-23.06
			c10.62-2.53,20.36-3.96,29.24-4.28v139.55c0,23.46-9.03,40.74-27.1,51.83c-14.9,9.19-34.71,13.79-59.44,13.79h-63.24v-41.13
			H924.18z M931.08,2025.15c0,2.85-1.59,5.47-4.75,7.85c-3.49,2.69-7.85,4.04-13.08,4.04h-38.75v-34.47c0-2.38,1.58-4.91,4.75-7.61
			c3.8-3.17,8.08-4.75,12.84-4.75h38.99V2025.15z M1010.25,2025.15c0,2.85-1.59,5.47-4.75,7.85c-3.65,2.69-8.08,4.04-13.31,4.04
			h-38.75v-34.47c0-2.38,1.58-4.91,4.75-7.61c3.8-3.17,8.08-4.75,12.84-4.75h39.23V2025.15z"/>
		<path d="M1167.63,1991.63c0,15.53-6.34,29.16-19.02,40.89c-12.05,11.25-27.18,18.78-45.41,22.58c-7.45,1.58-14.74,2.38-21.87,2.38
			c-10.62,0-20.92-1.75-30.91-5.23c-18.22-6.5-30.99-16.17-38.28-29c8.08,3.17,18.63,4.75,31.62,4.75c7.92,0,15.93-0.87,24.01-2.62
			c26.94-6.03,40.42-21.32,40.42-45.88v-224.67c8.87,0,18.62,1.27,29.24,3.8c20.13,4.6,30.19,12.44,30.19,23.54V1991.63z"/>
		<path d="M1390.87,1914.84c12.2,2.54,22.74,3.8,31.62,3.8h13.55v41.37h-8.08c-6.5,0-15.69-1.27-27.58-3.8
			c-2.22-0.63-5.39-1.34-9.51-2.14v37.56c0,15.53-6.34,29.16-19.02,40.89c-12.05,11.25-27.18,18.78-45.41,22.58
			c-7.45,1.58-14.74,2.38-21.87,2.38c-10.62,0-20.92-1.75-30.91-5.23c-18.23-6.5-30.99-16.17-38.28-29
			c8.08,3.17,18.62,4.75,31.62,4.75c7.92,0,15.93-0.87,24.01-2.62c26.94-6.03,40.42-21.32,40.42-45.88v-27.34
			c-14.26,8.08-28.37,12.12-42.32,12.12c-22.82,0-41.92-6.1-57.3-18.31c-16.01-12.84-24.01-29.64-24.01-50.4v-68.95
			c0-20.6,7.21-37.17,21.63-49.69c14.74-12.99,34.24-19.5,58.49-19.5c7.13,0,17.83,1.35,32.09,4.04c14.74,2.7,26.23,4.04,34.47,4.04
			c14.26,0,26.39-2.62,36.38-7.85V1914.84z M1330.96,1800.01c-8.88-2.06-17.83-3.09-26.87-3.09c-13.16,0-22.67,3.09-28.53,9.27
			c-5.39,5.71-8.08,14.42-8.08,26.15v57.53c0,22.82,8.88,34.24,26.63,34.24c9.51,0,17.91-2.77,25.2-8.32
			c7.76-5.86,11.65-13.23,11.65-22.11V1800.01z"/>
		<path d="M1590.1,1960.01c-28.05,0-50.09-5.47-66.09-16.4c-16.64,10.78-37.17,16.17-61.58,16.17h-7.61v0.24h-30.67v-41.13h32.81
			c21.08-0.16,31.62-10.3,31.62-30.43v-106.27c0-10.46,10.14-18.15,30.43-23.06c10.62-2.53,20.45-3.96,29.48-4.28v138.13
			c0,7.93,3.41,14.35,10.22,19.26c6.18,4.44,13.39,6.66,21.63,6.66h29v41.13H1590.1z M1507.6,1709.91c0,2.85-1.59,5.47-4.75,7.85
			c-3.49,2.7-7.85,4.04-13.08,4.04h-38.75v-34.47c0-2.38,1.58-4.91,4.75-7.61c3.8-3.17,8.08-4.75,12.84-4.75h38.99V1709.91z
			 M1586.77,1709.91c0,2.85-1.59,5.47-4.75,7.85c-3.65,2.7-8.08,4.04-13.31,4.04h-38.75v-34.47c0-2.38,1.58-4.91,4.75-7.61
			c3.8-3.17,8.08-4.75,12.84-4.75h39.23V1709.91z"/>
		<path d="M1756.28,1960.01c-28.05,0-50.09-5.47-66.09-16.4c-16.64,10.78-37.17,16.17-61.58,16.17h-7.61v0.24h-23.54v-41.13h25.68
			c21.08-0.16,31.62-10.3,31.62-30.43v-179.73c0-10.46,10.14-18.15,30.43-23.06c10.62-2.53,20.45-3.96,29.48-4.28v211.59
			c0,7.93,3.41,14.35,10.22,19.26c6.18,4.44,13.39,6.66,21.63,6.66h26.63v41.13H1756.28z"/>
		<path d="M1826.18,1918.88v-210.17c0-11.09,10.38-18.94,31.14-23.54c10.94-2.38,21-3.57,30.19-3.57v251.06
			c0,11.26-7.69,19.1-23.06,23.54c-8.08,2.54-16.09,3.8-24.01,3.8h-79.17v-41.13H1826.18z"/>
		<path d="M2157.12,1960.01c-32.49,0-56.74,10.38-72.75,31.14c-10.62,13.79-15.93,30.35-15.93,49.69c0,12.99,1.98,25.99,5.94,38.99
			c-18.7-5.71-31.07-22.35-37.09-49.93c-1.9-8.72-2.85-17.04-2.85-24.96c0-16.01,3.88-30.35,11.65-43.03
			c17.43-28.69,54.44-43.03,111.03-43.03h98.19v-63.24c0-38.83-19.89-58.25-59.67-58.25c-53.1,0-85.75,14.26-97.95,42.79
			c-7.61-11.57-11.41-22.82-11.41-33.76c0-12.52,6.1-23.14,18.31-31.86c19.5-14.11,49.84-21.16,91.06-21.16
			c35.82,0,64.11,7.21,84.87,21.63c24.09,16.49,36.14,41.53,36.14,75.13v68.71h40.18v41.13H2157.12z M2220.12,2025.15
			c0,2.85-1.59,5.47-4.75,7.85c-3.49,2.69-7.93,4.04-13.31,4.04h-38.51v-34.71c0-2.38,1.5-4.84,4.52-7.37
			c3.96-3.17,8.32-4.75,13.08-4.75h38.99V2025.15z"/>
		<path d="M2510.88,1960.01c-28.05,0-50.09-5.47-66.09-16.4c-16.64,10.78-37.17,16.17-61.58,16.17h-7.61v0.24h-30.67v-41.13h32.81
			c21.08-0.16,31.62-10.3,31.62-30.43v-106.27c0-10.46,10.14-18.15,30.43-23.06c10.62-2.53,20.45-3.96,29.48-4.28v138.13
			c0,7.93,3.41,14.35,10.22,19.26c6.18,4.44,13.39,6.66,21.63,6.66h29v41.13H2510.88z M2423.15,2025.15c0,2.85-1.59,5.47-4.75,7.85
			c-3.49,2.69-7.85,4.04-13.08,4.04h-38.75v-34.47c0-2.38,1.58-4.91,4.75-7.61c3.8-3.17,8.08-4.75,12.84-4.75h38.99V2025.15z
			 M2502.32,2025.15c0,2.85-1.59,5.47-4.75,7.85c-3.65,2.69-8.08,4.04-13.31,4.04h-38.75v-34.47c0-2.38,1.58-4.91,4.75-7.61
			c3.8-3.17,8.08-4.75,12.84-4.75h39.23V2025.15z"/>
		<path d="M2677.06,1960.01c-28.05,0-50.09-5.47-66.09-16.4c-16.64,10.78-37.17,16.17-61.58,16.17h-7.61v0.24h-23.54v-41.13h25.68
			c21.08-0.16,31.62-10.3,31.62-30.43v-179.73c0-10.46,10.14-18.15,30.43-23.06c10.62-2.53,20.45-3.96,29.48-4.28v211.59
			c0,7.93,3.41,14.35,10.22,19.26c6.18,4.44,13.39,6.66,21.63,6.66h26.63v41.13H2677.06z"/>
		<path d="M2979,1918.88v41.13h-296.94v-41.13h195.42v-63.24c0-38.83-19.89-58.25-59.67-58.25c-53.1,0-85.75,14.26-97.95,42.79
			c-7.61-11.57-11.41-22.82-11.41-33.76c0-12.52,6.1-23.14,18.31-31.86c19.5-14.11,49.84-21.16,91.06-21.16
			c35.82,0,64.11,7.21,84.88,21.63c24.09,16.49,36.14,41.53,36.14,75.13v68.71H2979z M2835.87,1710.62c0,2.85-1.59,5.47-4.75,7.85
			c-3.49,2.7-7.93,4.04-13.31,4.04h-38.51v-34.71c0-2.38,1.5-4.83,4.52-7.37c3.96-3.17,8.32-4.75,13.08-4.75h38.99V1710.62z"/>
		<path d="M3032.01,1918.88v-210.17c0-11.09,10.38-18.94,31.14-23.54c10.94-2.38,21-3.57,30.19-3.57v251.06
			c0,11.26-7.69,19.1-23.06,23.54c-8.08,2.54-16.09,3.8-24.01,3.8h-79.17v-41.13H3032.01z"/>
		<path d="M3195.1,1936.48c0,11.1-10.38,18.94-31.14,23.54c-10.78,2.54-20.84,3.8-30.19,3.8v-255.1c0-11.09,10.38-18.94,31.14-23.54
			c10.94-2.38,21-3.57,30.19-3.57V1936.48z"/>
	</g>
	<g>
		<path d="M347.01,2260.15c0,3.46-0.84,7.39-2.53,11.79c-3.37,8.61-9.12,12.91-17.26,12.91H244.7c-8.14,0-13.85-4.3-17.12-12.91
			c-1.68-4.4-2.53-8.33-2.53-11.79h37.89c-6.83-3.83-11.79-7.06-14.88-9.68c-9.36-7.86-14.03-16.7-14.03-26.53
			c0-1.21,0.05-2.43,0.14-3.65c0-13.1,4.91-23.2,14.74-30.32c10.01-7.3,24.51-10.95,43.51-10.95c13.85,0,25.07,2.76,33.68,8.28
			c8.05,5.24,12.07,11.84,12.07,19.79c0,5.99-1.78,11.46-5.33,16.42c-0.09-3.93-3.74-8.09-10.95-12.49
			c-7.3-4.77-16.75-7.16-28.35-7.16c-15.16,0-23.21,6.55-24.14,19.65c-0.09,0.84-0.14,1.69-0.14,2.53
			c0,11.42,5.19,20.16,15.58,26.24c7.67,4.49,18.39,7.11,32.14,7.86H347.01z"/>
		<path d="M449.12,2284.85c-3.84,0-9.26-0.75-16.28-2.24c-7.21-1.59-12.59-2.39-16.14-2.39c-11.88,0-20.16,1.4-24.84,4.21V2136.5
			c0-6.55,5.94-11.18,17.82-13.89c6.27-1.4,12.07-2.11,17.4-2.11v137.82c7.2,1.4,13.52,2.11,18.95,2.11l11.51,0.14v24.28H449.12z"/>
		<path d="M450.52,2260.57h58.81v24.28h-58.81V2260.57z"/>
		<path d="M600.27,2284.85c-16.56,0-29.57-3.23-39.02-9.68c-9.82,6.36-21.94,9.54-36.35,9.54h-4.49v0.14h-18.1v-24.28h19.37
			c12.44-0.09,18.67-6.08,18.67-17.96v-62.73c0-6.18,5.99-10.71,17.96-13.62c6.27-1.49,12.07-2.34,17.4-2.53v81.54
			c0,4.68,2.01,8.47,6.04,11.37c3.65,2.62,7.91,3.93,12.77,3.93h17.12v24.28H600.27z M575.29,2138.89c0,1.68-0.94,3.23-2.81,4.63
			c-2.06,1.59-4.68,2.39-7.86,2.39h-22.74v-20.49c0-1.4,0.89-2.85,2.67-4.35c2.34-1.87,4.91-2.81,7.72-2.81h23.02V2138.89z"/>
		<path d="M604.62,2260.57h58.81v24.28h-58.81V2260.57z"/>
		<path d="M754.37,2284.85c-16.56,0-29.57-3.23-39.02-9.68c-9.82,6.36-21.94,9.54-36.35,9.54h-4.49v0.14h-18.1v-24.28h19.37
			c12.44-0.09,18.67-6.08,18.67-17.96v-62.73c0-6.18,5.99-10.71,17.96-13.62c6.27-1.49,12.07-2.34,17.4-2.53v81.54
			c0,4.68,2.01,8.47,6.04,11.37c3.65,2.62,7.91,3.93,12.77,3.93h17.12v24.28H754.37z M726.44,2323.17c0,1.68-0.94,3.23-2.81,4.63
			c-2.06,1.59-4.68,2.38-7.86,2.38h-22.74v-20.49c0-1.4,0.89-2.86,2.67-4.35c2.34-1.87,4.91-2.81,7.72-2.81h23.02V2323.17z"/>
		<path d="M758.72,2260.57h58.81v24.28h-58.81V2260.57z"/>
		<path d="M848.83,2260.57V2136.5c0-6.55,6.13-11.18,18.39-13.89c6.46-1.4,12.4-2.11,17.82-2.11v148.21
			c0,6.64-4.54,11.28-13.61,13.89c-4.77,1.5-9.5,2.24-14.17,2.24h-46.74v-24.28H848.83z"/>
		<path d="M966.09,2270.96c0,6.55-6.13,11.18-18.39,13.89c-6.36,1.5-12.3,2.25-17.82,2.25V2136.5c0-6.55,6.13-11.18,18.39-13.89
			c6.46-1.4,12.4-2.11,17.82-2.11V2270.96z"/>
		<path d="M1305.03,2284.85c-33.4,0-55.25-8.42-65.54-25.26c-4.58-7.58-6.88-16.09-6.88-25.54c0-4.68,0.56-9.59,1.68-14.74
			c3.55-16.28,10.85-26.11,21.89-29.47c-2.34,7.49-3.51,15.16-3.51,23.02c0,11.42,3.13,21.19,9.4,29.33
			c9.54,12.26,23.86,18.38,42.95,18.38h79.44c12.72,0,19.09-5.99,19.09-17.96v-62.73c0-6.18,5.99-10.71,17.96-13.62
			c6.27-1.49,12.02-2.34,17.26-2.53v82.38c0,13.85-5.33,24.05-16,30.6c-8.79,5.43-20.49,8.14-35.09,8.14H1305.03z M1325.94,2168.5
			c0,1.68-0.94,3.23-2.81,4.63c-2.06,1.59-4.63,2.39-7.72,2.39h-22.88v-20.35c0-1.4,0.93-2.9,2.81-4.49
			c2.25-1.87,4.77-2.81,7.58-2.81h23.02V2168.5z M1372.68,2168.5c0,1.68-0.94,3.23-2.81,4.63c-2.15,1.59-4.77,2.39-7.86,2.39h-22.88
			v-20.35c0-1.4,0.93-2.9,2.81-4.49c2.25-1.87,4.77-2.81,7.58-2.81h23.16V2168.5z"/>
		<path d="M1519.83,2270.96c0,6.55-6.13,11.18-18.39,13.89c-6.36,1.5-12.3,2.25-17.82,2.25V2136.5c0-6.55,6.13-11.18,18.39-13.89
			c6.46-1.4,12.4-2.11,17.82-2.11V2270.96z"/>
		<path d="M1672.74,2303.52c0,9.17-3.74,17.21-11.23,24.14c-7.11,6.64-16.05,11.09-26.81,13.33c-4.4,0.93-8.7,1.4-12.91,1.4
			c-6.27,0-12.35-1.03-18.25-3.09c-10.76-3.84-18.29-9.54-22.6-17.12c4.77,1.87,10.99,2.81,18.67,2.81c4.68,0,9.4-0.52,14.17-1.54
			c15.91-3.56,23.86-12.58,23.86-27.09v-16.14c-8.42,4.77-16.75,7.16-24.98,7.16c-13.47,0-24.75-3.6-33.82-10.81
			c-9.45-7.58-14.18-17.5-14.18-29.75v-40.7c0-12.16,4.26-21.94,12.77-29.33c8.7-7.67,20.21-11.51,34.53-11.51
			c4.21,0,10.53,0.8,18.95,2.39c8.7,1.59,15.48,2.39,20.35,2.39c8.42,0,15.58-1.54,21.47-4.63V2303.52z M1637.37,2190.4
			c-5.24-1.21-10.53-1.82-15.86-1.82c-7.77,0-13.38,1.82-16.84,5.47c-3.18,3.37-4.77,8.52-4.77,15.44v33.96
			c0,13.47,5.24,20.21,15.72,20.21c5.61,0,10.57-1.64,14.88-4.91c4.58-3.46,6.88-7.81,6.88-13.05V2190.4z"/>
		<path d="M1737.37,2284.85c-8.23,0-13.8-2.95-16.7-8.84c-2.06-4.21-3.09-10.38-3.09-18.53c3.65,2.06,12.96,3.09,27.93,3.09h41.68
			v-49.26c0-10.01-2.76-16.89-8.28-20.63c-3.84-2.53-9.78-3.79-17.82-3.79c-7.58,0-13.99,2.25-19.23,6.74
			c-6.27,5.33-9.4,11.42-9.4,18.24c-5.24-7.67-7.86-15.39-7.86-23.16c0-9.54,5.52-16.61,16.56-21.19
			c7.95-3.27,17.31-4.91,28.07-4.91c17.21,0,30.46,3.7,39.72,11.09c9.07,7.21,13.61,17.26,13.61,30.17v80.98H1737.37z"/>
		<path d="M1903.61,2270.96c0,6.55-6.13,11.18-18.39,13.89c-6.36,1.5-12.3,2.25-17.82,2.25V2136.5c0-6.55,6.13-11.18,18.39-13.89
			c6.46-1.4,12.4-2.11,17.82-2.11V2270.96z"/>
		<path d="M2056.52,2303.52c0,9.17-3.74,17.21-11.23,24.14c-7.11,6.64-16.05,11.09-26.81,13.33c-4.4,0.93-8.7,1.4-12.91,1.4
			c-6.27,0-12.35-1.03-18.25-3.09c-10.76-3.84-18.29-9.54-22.6-17.12c4.77,1.87,10.99,2.81,18.67,2.81c4.68,0,9.4-0.52,14.17-1.54
			c15.91-3.56,23.86-12.58,23.86-27.09v-16.14c-8.42,4.77-16.75,7.16-24.98,7.16c-13.47,0-24.75-3.6-33.82-10.81
			c-9.45-7.58-14.18-17.5-14.18-29.75v-40.7c0-12.16,4.26-21.94,12.77-29.33c8.7-7.67,20.21-11.51,34.53-11.51
			c4.21,0,10.53,0.8,18.95,2.39c8.7,1.59,15.48,2.39,20.35,2.39c8.42,0,15.58-1.54,21.47-4.63V2303.52z M2021.16,2190.4
			c-5.24-1.21-10.53-1.82-15.86-1.82c-7.77,0-13.38,1.82-16.84,5.47c-3.18,3.37-4.77,8.52-4.77,15.44v33.96
			c0,13.47,5.24,20.21,15.72,20.21c5.61,0,10.57-1.64,14.88-4.91c4.58-3.46,6.88-7.81,6.88-13.05V2190.4z"/>
		<path d="M2339.33,2284.85c-8.23,0-13.8-2.95-16.7-8.84c-2.06-4.21-3.09-10.38-3.09-18.53c3.65,2.06,12.96,3.09,27.93,3.09h41.68
			v-49.26c0-10.01-2.76-16.89-8.28-20.63c-3.84-2.53-9.78-3.79-17.82-3.79c-7.58,0-13.99,2.25-19.23,6.74
			c-6.27,5.33-9.4,11.42-9.4,18.24c-5.24-7.67-7.86-15.39-7.86-23.16c0-9.54,5.52-16.61,16.56-21.19
			c7.95-3.27,17.31-4.91,28.07-4.91c17.21,0,30.46,3.7,39.72,11.09c9.07,7.21,13.61,17.26,13.61,30.17v80.98H2339.33z"/>
		<path d="M2489.15,2284.85c-8.23,0-13.8-2.95-16.7-8.84c-2.06-4.21-3.09-10.38-3.09-18.53c3.65,2.06,12.96,3.09,27.93,3.09h41.68
			v-49.26c0-10.01-2.76-16.89-8.28-20.63c-3.84-2.53-9.78-3.79-17.82-3.79c-7.58,0-13.99,2.25-19.23,6.74
			c-6.27,5.33-9.4,11.42-9.4,18.24c-5.24-7.67-7.86-15.39-7.86-23.16c0-9.54,5.52-16.61,16.56-21.19
			c7.95-3.27,17.31-4.91,28.07-4.91c17.21,0,30.46,3.7,39.72,11.09c9.07,7.21,13.61,17.26,13.61,30.17v56.7h22.17v24.28H2489.15z"/>
		<path d="M2589.5,2260.57h58.81v24.28h-58.81V2260.57z"/>
		<path d="M2834.27,2284.85h-191.86v-24.7h76.35c-5.52-7.48-17.45-19.97-35.79-37.47c-14.13-13.47-22.32-24.19-24.56-32.14
			c-0.84-2.62-1.78-6.69-2.81-12.21c-0.94-5.24-1.64-8.65-2.11-10.25h165.61c-0.47,1.59-1.22,5.01-2.25,10.25
			c-1.03,5.52-1.92,9.59-2.67,12.21c-2.25,7.95-10.43,18.67-24.56,32.14c-18.34,17.5-30.27,29.99-35.79,37.47h80.42V2284.85z
			 M2698.83,2192.92c1.87,3.28,14.36,16.47,37.47,39.58c23.02-23.11,35.55-36.3,37.61-39.58H2698.83z"/>
		<path d="M2827.25,2260.57h58.81v24.28h-58.81V2260.57z"/>
		<path d="M2972.79,2284.85c-16.56,0-29.57-3.23-39.02-9.68c-9.82,6.36-21.94,9.54-36.35,9.54h-4.49v0.14h-13.89v-24.28h15.16
			c12.44-0.09,18.67-6.08,18.67-17.96v-106.1c0-6.17,5.99-10.71,17.96-13.61c6.27-1.5,12.07-2.34,17.4-2.53v124.91
			c0,4.68,2.01,8.47,6.03,11.37c3.65,2.62,7.91,3.93,12.77,3.93h15.72v24.28H2972.79z"/>
		<path d="M2975.74,2260.57h58.81v24.28h-58.81V2260.57z"/>
		<path d="M3065.84,2260.57V2136.5c0-6.55,6.13-11.18,18.39-13.89c6.46-1.4,12.4-2.11,17.82-2.11v148.21
			c0,6.64-4.54,11.28-13.61,13.89c-4.77,1.5-9.5,2.24-14.17,2.24h-46.74v-24.28H3065.84z"/>
	</g>
</g>
</svg>
