<svg width="12" height="13" viewBox="0 0 12 13" fill="none" xmlns="http://www.w3.org/2000/svg">
<path fill-rule="evenodd" clip-rule="evenodd" d="M7.0002 3.5H6.0005V1.5H7.0002V3.5ZM10.999 6.5H8.99961V5.5H10.999V6.5ZM8.62093 4.58575L10.0345 3.17125L9.32772 2.46425L7.91413 3.87875L8.62093 4.58575ZM9.32777 9.53545L10.0346 8.82845L8.62098 7.41395L7.91418 8.12095L9.32777 9.53545ZM4.37953 4.58575L5.08632 3.87875L3.67274 2.46425L2.96594 3.17125L4.37953 4.58575ZM4.30555 8.7586L2.90896 10.1556L2.34313 9.5896L3.74022 8.1926L2.73401 7.1866L6.26397 6.2331L5.31075 9.7641L4.30555 8.7586ZM5.77412 11.5001L7.54109 4.9561L0.999024 6.7231L2.46759 8.1926L1.0705 9.5896L2.90896 11.4281L4.30555 10.0311L5.77412 11.5001Z" fill="white"/>
</svg>
